<svg version="1.1" id="Layer_1" xmlns="http://www.w3.org/2000/svg" xmlns:xlink="http://www.w3.org/1999/xlink" x="0px" y="0px"
	 width="100%" viewBox="0 0 1542 452" enable-background="new 0 0 1542 452" xml:space="preserve">
<path fill="#FFFFFF" opacity="1.000000" stroke="none" 
	d="
M1449.000000,453.000000 
	C966.060425,453.000000 483.620911,453.000000 1.090678,453.000000 
	C1.090678,302.412720 1.090678,151.825348 1.090678,1.118993 
	C515.000000,1.118993 1029.000000,1.118993 1542.993896,1.118993 
	C1542.993896,151.712509 1542.993896,302.356262 1542.990967,453.000000 
	C1511.825317,453.000000 1480.662598,453.000000 1449.000000,453.000000 
M550.997131,338.844330 
	C550.997131,341.121948 550.997131,343.399536 550.997131,345.750000 
	C571.678711,345.750000 591.910583,345.750000 612.517517,345.750000 
	C612.517517,344.528839 612.382751,343.537964 612.540283,342.596008 
	C613.332031,337.861267 611.757080,335.806305 606.588867,335.580292 
	C600.850342,335.329315 595.163879,333.890106 589.622559,332.995361 
	C589.622559,288.995575 589.622559,245.429214 589.622559,201.862869 
	C589.846924,201.824234 590.071350,201.785583 590.295715,201.746948 
	C611.224609,249.811279 632.153503,297.875610 652.927429,345.583984 
	C658.483704,347.290985 660.856506,345.037903 662.949341,340.260773 
	C682.536438,295.550812 702.402344,250.962982 722.199890,206.345261 
	C722.867859,204.839798 723.664673,203.391510 725.025635,200.666824 
	C725.025635,245.734268 725.025635,289.188507 725.025635,333.020142 
	C717.427551,334.211609 709.934021,335.386658 702.268616,336.588684 
	C702.268616,339.764679 702.268616,342.673157 702.268616,345.794769 
	C730.842529,345.794769 759.249512,345.794769 787.671143,345.794769 
	C787.671143,342.569855 787.671143,339.539764 787.671143,336.516113 
	C780.281921,335.320312 773.258606,334.183746 766.198547,333.041229 
	C766.198547,283.645996 766.198547,234.558578 766.198547,185.341614 
	C773.561157,184.171555 780.710815,183.035339 787.752563,181.916290 
	C787.752563,178.608749 787.752563,175.700150 787.752563,172.484680 
	C765.319519,172.484680 743.180481,172.432861 721.043457,172.619507 
	C719.777649,172.630157 717.981567,174.335938 717.359375,175.681534 
	C713.109192,184.872574 709.113953,194.181381 705.023865,203.446655 
	C692.903931,230.901901 680.778076,258.354553 668.376892,286.437073 
	C667.379456,284.224701 666.617188,282.592407 665.902283,280.939575 
	C650.875549,246.197800 635.808289,211.473389 620.907349,176.677765 
	C619.514038,173.424316 617.832886,172.297806 614.297058,172.390625 
	C604.306763,172.652878 594.305237,172.482300 584.308105,172.482285 
	C573.339417,172.482269 562.370789,172.482269 551.201782,172.482269 
	C551.201782,175.828949 551.201782,178.765060 551.201782,181.906372 
	C558.452026,183.054459 565.613464,184.188461 572.885803,185.340042 
	C572.885803,234.706421 572.885803,283.794708 572.885803,333.063965 
	C566.631531,334.062714 560.549011,334.957764 554.504761,336.062317 
	C553.265991,336.288635 552.170532,337.299500 550.997131,338.844330 
M954.771179,268.738678 
	C944.587585,258.148163 931.136292,255.128418 918.256165,253.033401 
	C923.607483,250.147583 929.944580,247.723572 935.094543,243.757904 
	C948.094849,233.747162 952.825317,220.084579 950.314453,203.942886 
	C947.891235,188.365280 937.449402,180.036880 923.223938,176.854736 
	C911.295715,174.186462 898.938904,172.512253 886.727844,172.216614 
	C859.078979,171.547211 831.402954,171.996170 803.737976,172.009354 
	C802.484253,172.009949 801.230652,172.196823 800.297607,172.271332 
	C800.297607,175.636917 800.297607,178.561523 800.297607,181.505096 
	C807.692139,182.637894 814.739685,183.717514 821.728394,184.788116 
	C821.728394,234.332825 821.728394,283.559662 821.728394,332.690460 
	C814.311279,333.883911 807.279968,335.015289 800.150024,336.162537 
	C800.150024,339.471588 800.150024,342.557983 800.150024,345.728302 
	C800.817505,345.841583 801.284912,345.990509 801.752136,345.990234 
	C834.249939,345.971161 866.750122,346.162384 899.244324,345.805603 
	C913.124329,345.653259 926.737732,343.199829 939.320801,336.793579 
	C964.721619,323.861633 972.583008,290.433777 954.771179,268.738678 
M998.602539,274.499573 
	C998.602539,293.800934 998.602539,313.102264 998.602539,332.680237 
	C991.100952,333.923004 983.930847,335.110840 976.605164,336.324463 
	C976.605164,339.572876 976.605164,342.643188 976.605164,346.001862 
	C978.041382,346.001862 979.186707,346.001984 980.332092,346.001862 
	C1008.830017,345.998779 1037.328979,346.125854 1065.825195,345.902649 
	C1073.118774,345.845551 1080.485840,345.164215 1087.678223,343.941101 
	C1117.552002,338.860962 1137.565063,322.375061 1145.330811,292.513458 
	C1150.786743,271.533508 1151.077881,250.290024 1146.520142,229.152237 
	C1140.475220,201.117523 1123.218506,183.227203 1095.423096,176.443848 
	C1084.681396,173.822357 1073.415649,172.459488 1062.351929,172.220245 
	C1034.866455,171.625870 1007.360107,172.004593 979.862122,172.010941 
	C978.758118,172.011200 977.654175,172.199417 976.611023,172.294495 
	C975.910583,181.259689 975.905640,181.288818 983.873718,182.633560 
	C987.155151,183.187378 990.450195,183.804993 993.762024,183.996277 
	C997.453735,184.209518 998.734009,185.556488 998.706482,189.506287 
	C998.511108,217.502914 998.602600,245.501541 998.602539,274.499573 
M370.445099,333.136475 
	C368.852173,333.605896 367.265198,334.096619 365.665344,334.541107 
	C358.093231,336.644897 358.088104,336.640503 358.299713,344.735504 
	C358.307190,345.022278 358.550018,345.302856 358.726013,345.677551 
	C376.080933,345.677551 393.459229,345.677551 410.631989,345.677551 
	C410.631989,342.422668 410.631989,339.499603 410.631989,336.539764 
	C403.213715,335.311768 396.104889,334.134979 388.789978,332.924103 
	C394.182892,317.629242 399.359406,302.948151 404.566803,288.179443 
	C426.744904,288.179443 448.705627,288.179443 471.051971,288.179443 
	C476.442871,302.911346 481.879883,317.769257 487.440948,332.966217 
	C480.488708,334.236145 474.168213,335.390686 467.772217,336.559021 
	C467.772217,339.855957 467.772217,342.779877 467.772217,345.691986 
	C493.410034,345.691986 518.791809,345.691986 544.180725,345.691986 
	C544.180725,342.441956 544.180725,339.507263 544.180725,336.487732 
	C542.033875,335.916748 540.145569,335.185028 538.196289,334.940552 
	C533.035278,334.293213 530.590454,331.496368 528.745789,326.520691 
	C514.494324,288.079773 499.858765,249.781235 485.349670,211.435776 
	C480.247986,197.952713 475.166992,184.461853 470.084869,170.996765 
	C458.850067,170.996765 448.018768,171.198715 437.202332,170.886017 
	C433.471375,170.778152 432.128326,172.205048 430.930481,175.424225 
	C422.710999,197.513992 414.318481,219.539627 405.926910,241.565048 
	C394.347748,271.956940 382.720306,302.330444 370.445099,333.136475 
M1304.207275,244.221161 
	C1295.026978,219.856018 1285.846680,195.490860 1276.663086,171.116989 
	C1264.058594,171.116989 1251.743164,171.116989 1239.283203,171.116989 
	C1238.788452,172.345627 1238.277710,173.554291 1237.811768,174.780029 
	C1219.229126,223.673233 1200.430542,272.486603 1182.281128,321.540192 
	C1179.148560,330.007050 1175.223145,335.601593 1165.906860,336.244995 
	C1165.653931,336.262482 1165.424683,336.625061 1165.096436,336.900574 
	C1165.096436,339.771179 1165.096436,342.700439 1165.096436,345.771515 
	C1182.539795,345.771515 1199.778320,345.771515 1217.124023,345.771515 
	C1217.124023,342.601562 1217.124023,339.669006 1217.124023,336.560272 
	C1209.815796,335.339691 1202.715698,334.153900 1195.299072,332.915222 
	C1200.702148,317.585449 1205.888184,302.871460 1211.046143,288.236969 
	C1233.392212,288.236969 1255.517456,288.236969 1277.589355,288.236969 
	C1283.057983,303.192383 1288.445190,317.924713 1293.949463,332.977661 
	C1287.122803,334.207733 1280.775024,335.351501 1274.320557,336.514526 
	C1274.320557,339.770355 1274.320557,342.806427 1274.320557,345.684113 
	C1300.055786,345.684113 1325.468262,345.684113 1350.731689,345.684113 
	C1350.731689,342.404755 1350.731689,339.452576 1350.731689,336.499939 
	C1347.618042,335.646271 1344.781006,334.637543 1341.857056,334.131256 
	C1338.888062,333.617188 1337.373535,332.141937 1336.314697,329.303772 
	C1325.808472,301.144196 1315.159668,273.037689 1304.207275,244.221161 
M261.642334,268.934937 
	C270.714966,295.633728 279.787567,322.332489 288.785858,348.812561 
	C295.090942,348.812561 300.866119,348.812561 306.934052,348.812561 
	C306.390381,347.151459 305.946869,345.746582 305.471863,344.352448 
	C296.635803,318.419586 287.799194,292.486877 278.956085,266.556396 
	C268.612732,236.226685 258.276398,205.894547 247.874771,175.584793 
	C247.377029,174.134430 246.350327,171.789444 245.447556,171.730331 
	C239.940384,171.369675 234.397751,171.550156 228.460129,171.550156 
	C239.614700,204.398697 250.451523,236.311554 261.642334,268.934937 
M1422.734497,343.135406 
	C1422.734497,326.362640 1422.734497,309.589874 1422.734497,292.663391 
	C1404.571777,292.663391 1386.875244,292.663391 1369.141602,292.663391 
	C1369.141602,310.531647 1369.141602,328.083679 1369.141602,345.856598 
	C1386.264404,345.856598 1403.075806,345.885651 1419.886475,345.780151 
	C1420.835938,345.774200 1421.778687,344.662476 1422.734497,343.135406 
M176.168167,330.968201 
	C178.371582,336.950134 183.734390,339.503143 188.644089,342.618134 
	C194.872589,346.569824 196.499496,351.188965 192.530426,357.297424 
	C189.539581,361.900360 185.325562,365.948059 180.955429,369.340363 
	C177.378632,372.116791 172.767792,373.561127 168.821594,375.494904 
	C168.821594,379.276917 168.821594,382.990936 168.821594,388.090881 
	C178.217743,383.831757 187.181290,380.641693 195.254974,375.927612 
	C212.183456,366.043488 221.294449,351.123749 220.926544,331.127563 
	C220.694458,318.513428 211.661362,308.709869 199.161850,307.148743 
	C182.442276,305.060547 172.238297,315.202942 176.168167,330.968201 
z"/>
<path fill="#030303" opacity="1.000000" stroke="none" 
	d="
M551.003052,338.396515 
	C552.170532,337.299500 553.265991,336.288635 554.504761,336.062317 
	C560.549011,334.957764 566.631531,334.062714 572.885803,333.063965 
	C572.885803,283.794708 572.885803,234.706421 572.885803,185.340042 
	C565.613464,184.188461 558.452026,183.054459 551.201782,181.906372 
	C551.201782,178.765060 551.201782,175.828949 551.201782,172.482269 
	C562.370789,172.482269 573.339417,172.482269 584.308105,172.482285 
	C594.305237,172.482300 604.306763,172.652878 614.297058,172.390625 
	C617.832886,172.297806 619.514038,173.424316 620.907349,176.677765 
	C635.808289,211.473389 650.875549,246.197800 665.902283,280.939575 
	C666.617188,282.592407 667.379456,284.224701 668.376892,286.437073 
	C680.778076,258.354553 692.903931,230.901901 705.023865,203.446655 
	C709.113953,194.181381 713.109192,184.872574 717.359375,175.681534 
	C717.981567,174.335938 719.777649,172.630157 721.043457,172.619507 
	C743.180481,172.432861 765.319519,172.484680 787.752563,172.484680 
	C787.752563,175.700150 787.752563,178.608749 787.752563,181.916290 
	C780.710815,183.035339 773.561157,184.171555 766.198547,185.341614 
	C766.198547,234.558578 766.198547,283.645996 766.198547,333.041229 
	C773.258606,334.183746 780.281921,335.320312 787.671143,336.516113 
	C787.671143,339.539764 787.671143,342.569855 787.671143,345.794769 
	C759.249512,345.794769 730.842529,345.794769 702.268616,345.794769 
	C702.268616,342.673157 702.268616,339.764679 702.268616,336.588684 
	C709.934021,335.386658 717.427551,334.211609 725.025635,333.020142 
	C725.025635,289.188507 725.025635,245.734268 725.025635,200.666824 
	C723.664673,203.391510 722.867859,204.839798 722.199890,206.345261 
	C702.402344,250.962982 682.536438,295.550812 662.949341,340.260773 
	C660.856506,345.037903 658.483704,347.290985 652.927429,345.583984 
	C632.153503,297.875610 611.224609,249.811279 590.295715,201.746948 
	C590.071350,201.785583 589.846924,201.824234 589.622559,201.862869 
	C589.622559,245.429214 589.622559,288.995575 589.622559,332.995361 
	C595.163879,333.890106 600.850342,335.329315 606.588867,335.580292 
	C611.757080,335.806305 613.332031,337.861267 612.540283,342.596008 
	C612.382751,343.537964 612.517517,344.528839 612.517517,345.750000 
	C591.910583,345.750000 571.678711,345.750000 550.997131,345.750000 
	C550.997131,343.399536 550.997131,341.121948 551.003052,338.396515 
z"/>
<path fill="#020202" opacity="1.000000" stroke="none" 
	d="
M954.997192,269.015625 
	C972.583008,290.433777 964.721619,323.861633 939.320801,336.793579 
	C926.737732,343.199829 913.124329,345.653259 899.244324,345.805603 
	C866.750122,346.162384 834.249939,345.971161 801.752136,345.990234 
	C801.284912,345.990509 800.817505,345.841583 800.150024,345.728302 
	C800.150024,342.557983 800.150024,339.471588 800.150024,336.162537 
	C807.279968,335.015289 814.311279,333.883911 821.728394,332.690460 
	C821.728394,283.559662 821.728394,234.332825 821.728394,184.788116 
	C814.739685,183.717514 807.692139,182.637894 800.297607,181.505096 
	C800.297607,178.561523 800.297607,175.636917 800.297607,172.271332 
	C801.230652,172.196823 802.484253,172.009949 803.737976,172.009354 
	C831.402954,171.996170 859.078979,171.547211 886.727844,172.216614 
	C898.938904,172.512253 911.295715,174.186462 923.223938,176.854736 
	C937.449402,180.036880 947.891235,188.365280 950.314453,203.942886 
	C952.825317,220.084579 948.094849,233.747162 935.094543,243.757904 
	C929.944580,247.723572 923.607483,250.147583 918.256165,253.033401 
	C931.136292,255.128418 944.587585,258.148163 954.997192,269.015625 
M913.089294,269.396912 
	C909.031738,267.234802 905.150879,263.724457 900.883240,263.165222 
	C888.452637,261.536224 875.867371,261.087585 863.184082,260.164581 
	C863.184082,284.778748 863.184082,308.140900 863.184082,331.830231 
	C872.450500,331.830231 881.412903,331.838287 890.375366,331.822968 
	C892.039246,331.820129 893.713562,331.824768 895.365234,331.653748 
	C909.433899,330.197021 917.410156,323.603333 919.937378,309.723297 
	C921.287659,302.307617 921.183716,294.540161 920.969238,286.953156 
	C920.787048,280.506805 918.112061,274.704193 913.089294,269.396912 
M906.715515,230.949875 
	C907.146240,222.705719 908.352600,214.410614 907.815186,206.230057 
	C907.113525,195.547455 900.692444,188.622940 890.511230,187.269501 
	C881.538208,186.076660 872.388123,186.215622 863.265137,185.763947 
	C863.265137,206.644257 863.265137,226.642975 863.265137,246.754654 
	C870.461853,246.754654 877.284302,247.050598 884.071228,246.685577 
	C894.365967,246.131866 902.924683,242.588837 906.715515,230.949875 
z"/>
<path fill="#010101" opacity="1.000000" stroke="none" 
	d="
M998.602539,273.999573 
	C998.602600,245.501541 998.511108,217.502914 998.706482,189.506287 
	C998.734009,185.556488 997.453735,184.209518 993.762024,183.996277 
	C990.450195,183.804993 987.155151,183.187378 983.873718,182.633560 
	C975.905640,181.288818 975.910583,181.259689 976.611023,172.294495 
	C977.654175,172.199417 978.758118,172.011200 979.862122,172.010941 
	C1007.360107,172.004593 1034.866455,171.625870 1062.351929,172.220245 
	C1073.415649,172.459488 1084.681396,173.822357 1095.423096,176.443848 
	C1123.218506,183.227203 1140.475220,201.117523 1146.520142,229.152237 
	C1151.077881,250.290024 1150.786743,271.533508 1145.330811,292.513458 
	C1137.565063,322.375061 1117.552002,338.860962 1087.678223,343.941101 
	C1080.485840,345.164215 1073.118774,345.845551 1065.825195,345.902649 
	C1037.328979,346.125854 1008.830017,345.998779 980.332092,346.001862 
	C979.186707,346.001984 978.041382,346.001862 976.605164,346.001862 
	C976.605164,342.643188 976.605164,339.572876 976.605164,336.324463 
	C983.930847,335.110840 991.100952,333.923004 998.602539,332.680237 
	C998.602539,313.102264 998.602539,293.800934 998.602539,273.999573 
M1105.049072,235.493530 
	C1104.683960,233.364517 1104.416870,231.213226 1103.938354,229.110031 
	C1100.594849,214.413681 1094.825073,201.190186 1080.883423,193.415833 
	C1067.892944,186.171936 1053.692383,185.793945 1039.316162,186.288834 
	C1039.316162,234.780060 1039.316162,282.822113 1039.316162,331.982330 
	C1047.412598,331.982330 1055.219238,332.069763 1063.023071,331.965454 
	C1083.906250,331.686371 1096.563477,322.398743 1101.978149,302.276489 
	C1107.806396,280.618103 1107.887207,258.523712 1105.049072,235.493530 
z"/>
<path fill="#020202" opacity="1.000000" stroke="none" 
	d="
M370.779327,332.924133 
	C382.720306,302.330444 394.347748,271.956940 405.926910,241.565048 
	C414.318481,219.539627 422.710999,197.513992 430.930481,175.424225 
	C432.128326,172.205048 433.471375,170.778152 437.202332,170.886017 
	C448.018768,171.198715 458.850067,170.996765 470.084869,170.996765 
	C475.166992,184.461853 480.247986,197.952713 485.349670,211.435776 
	C499.858765,249.781235 514.494324,288.079773 528.745789,326.520691 
	C530.590454,331.496368 533.035278,334.293213 538.196289,334.940552 
	C540.145569,335.185028 542.033875,335.916748 544.180725,336.487732 
	C544.180725,339.507263 544.180725,342.441956 544.180725,345.691986 
	C518.791809,345.691986 493.410034,345.691986 467.772217,345.691986 
	C467.772217,342.779877 467.772217,339.855957 467.772217,336.559021 
	C474.168213,335.390686 480.488708,334.236145 487.440948,332.966217 
	C481.879883,317.769257 476.442871,302.911346 471.051971,288.179443 
	C448.705627,288.179443 426.744904,288.179443 404.566803,288.179443 
	C399.359406,302.948151 394.182892,317.629242 388.789978,332.924103 
	C396.104889,334.134979 403.213715,335.311768 410.631989,336.539764 
	C410.631989,339.499603 410.631989,342.422668 410.631989,345.677551 
	C393.459229,345.677551 376.080933,345.677551 358.726013,345.677551 
	C358.550018,345.302856 358.307190,345.022278 358.299713,344.735504 
	C358.088104,336.640503 358.093231,336.644897 365.665344,334.541107 
	C367.265198,334.096619 368.852173,333.605896 370.779327,332.924133 
M456.427429,247.036301 
	C450.540771,230.692078 444.654114,214.347839 438.377228,196.920227 
	C428.673096,223.110123 419.344757,248.285751 409.928955,273.697510 
	C429.004852,273.697510 447.274689,273.697510 466.005310,273.697510 
	C462.865723,264.868103 459.820953,256.305298 456.427429,247.036301 
z"/>
<path fill="#020202" opacity="1.000000" stroke="none" 
	d="
M1304.379150,244.568680 
	C1315.159668,273.037689 1325.808472,301.144196 1336.314697,329.303772 
	C1337.373535,332.141937 1338.888062,333.617188 1341.857056,334.131256 
	C1344.781006,334.637543 1347.618042,335.646271 1350.731689,336.499939 
	C1350.731689,339.452576 1350.731689,342.404755 1350.731689,345.684113 
	C1325.468262,345.684113 1300.055786,345.684113 1274.320557,345.684113 
	C1274.320557,342.806427 1274.320557,339.770355 1274.320557,336.514526 
	C1280.775024,335.351501 1287.122803,334.207733 1293.949463,332.977661 
	C1288.445190,317.924713 1283.057983,303.192383 1277.589355,288.236969 
	C1255.517456,288.236969 1233.392212,288.236969 1211.046143,288.236969 
	C1205.888184,302.871460 1200.702148,317.585449 1195.299072,332.915222 
	C1202.715698,334.153900 1209.815796,335.339691 1217.124023,336.560272 
	C1217.124023,339.669006 1217.124023,342.601562 1217.124023,345.771515 
	C1199.778320,345.771515 1182.539795,345.771515 1165.096436,345.771515 
	C1165.096436,342.700439 1165.096436,339.771179 1165.096436,336.900574 
	C1165.424683,336.625061 1165.653931,336.262482 1165.906860,336.244995 
	C1175.223145,335.601593 1179.148560,330.007050 1182.281128,321.540192 
	C1200.430542,272.486603 1219.229126,223.673233 1237.811768,174.780029 
	C1238.277710,173.554291 1238.788452,172.345627 1239.283203,171.116989 
	C1251.743164,171.116989 1264.058594,171.116989 1276.663086,171.116989 
	C1285.846680,195.490860 1295.026978,219.856018 1304.379150,244.568680 
M1259.692383,237.826248 
	C1254.850464,224.533722 1250.008545,211.241180 1244.824097,197.008347 
	C1235.115479,223.241196 1225.839233,248.305450 1216.501587,273.535736 
	C1235.533325,273.535736 1253.719727,273.535736 1272.472412,273.535736 
	C1268.187988,261.583527 1264.062866,250.076157 1259.692383,237.826248 
z"/>
<path fill="#040404" opacity="1.000000" stroke="none" 
	d="
M261.465332,268.579681 
	C250.451523,236.311554 239.614700,204.398697 228.460129,171.550156 
	C234.397751,171.550156 239.940384,171.369675 245.447556,171.730331 
	C246.350327,171.789444 247.377029,174.134430 247.874771,175.584793 
	C258.276398,205.894547 268.612732,236.226685 278.956085,266.556396 
	C287.799194,292.486877 296.635803,318.419586 305.471863,344.352448 
	C305.946869,345.746582 306.390381,347.151459 306.934052,348.812561 
	C300.866119,348.812561 295.090942,348.812561 288.785858,348.812561 
	C279.787567,322.332489 270.714966,295.633728 261.465332,268.579681 
z"/>
<path fill="#060606" opacity="1.000000" stroke="none" 
	d="
M1422.729492,343.600403 
	C1421.778687,344.662476 1420.835938,345.774200 1419.886475,345.780151 
	C1403.075806,345.885651 1386.264404,345.856598 1369.141602,345.856598 
	C1369.141602,328.083679 1369.141602,310.531647 1369.141602,292.663391 
	C1386.875244,292.663391 1404.571777,292.663391 1422.734497,292.663391 
	C1422.734497,309.589874 1422.734497,326.362640 1422.729492,343.600403 
z"/>
<path fill="#040404" opacity="1.000000" stroke="none" 
	d="
M176.073669,330.579834 
	C172.238297,315.202942 182.442276,305.060547 199.161850,307.148743 
	C211.661362,308.709869 220.694458,318.513428 220.926544,331.127563 
	C221.294449,351.123749 212.183456,366.043488 195.254974,375.927612 
	C187.181290,380.641693 178.217743,383.831757 168.821594,388.090881 
	C168.821594,382.990936 168.821594,379.276917 168.821594,375.494904 
	C172.767792,373.561127 177.378632,372.116791 180.955429,369.340363 
	C185.325562,365.948059 189.539581,361.900360 192.530426,357.297424 
	C196.499496,351.188965 194.872589,346.569824 188.644089,342.618134 
	C183.734390,339.503143 178.371582,336.950134 176.073669,330.579834 
z"/>
<path fill="#FDFDFD" opacity="1.000000" stroke="none" 
	d="
M913.345215,269.653076 
	C918.112061,274.704193 920.787048,280.506805 920.969238,286.953156 
	C921.183716,294.540161 921.287659,302.307617 919.937378,309.723297 
	C917.410156,323.603333 909.433899,330.197021 895.365234,331.653748 
	C893.713562,331.824768 892.039246,331.820129 890.375366,331.822968 
	C881.412903,331.838287 872.450500,331.830231 863.184082,331.830231 
	C863.184082,308.140900 863.184082,284.778748 863.184082,260.164581 
	C875.867371,261.087585 888.452637,261.536224 900.883240,263.165222 
	C905.150879,263.724457 909.031738,267.234802 913.345215,269.653076 
z"/>
<path fill="#FDFDFD" opacity="1.000000" stroke="none" 
	d="
M906.544800,231.310791 
	C902.924683,242.588837 894.365967,246.131866 884.071228,246.685577 
	C877.284302,247.050598 870.461853,246.754654 863.265137,246.754654 
	C863.265137,226.642975 863.265137,206.644257 863.265137,185.763947 
	C872.388123,186.215622 881.538208,186.076660 890.511230,187.269501 
	C900.692444,188.622940 907.113525,195.547455 907.815186,206.230057 
	C908.352600,214.410614 907.146240,222.705719 906.544800,231.310791 
z"/>
<path fill="#FEFEFE" opacity="1.000000" stroke="none" 
	d="
M1105.098145,235.932358 
	C1107.887207,258.523712 1107.806396,280.618103 1101.978149,302.276489 
	C1096.563477,322.398743 1083.906250,331.686371 1063.023071,331.965454 
	C1055.219238,332.069763 1047.412598,331.982330 1039.316162,331.982330 
	C1039.316162,282.822113 1039.316162,234.780060 1039.316162,186.288834 
	C1053.692383,185.793945 1067.892944,186.171936 1080.883423,193.415833 
	C1094.825073,201.190186 1100.594849,214.413681 1103.938354,229.110031 
	C1104.416870,231.213226 1104.683960,233.364517 1105.098145,235.932358 
z"/>
<path fill="#FBFBFB" opacity="1.000000" stroke="none" 
	d="
M456.601807,247.389404 
	C459.820953,256.305298 462.865723,264.868103 466.005310,273.697510 
	C447.274689,273.697510 429.004852,273.697510 409.928955,273.697510 
	C419.344757,248.285751 428.673096,223.110123 438.377228,196.920227 
	C444.654114,214.347839 450.540771,230.692078 456.601807,247.389404 
z"/>
<path fill="#FBFBFB" opacity="1.000000" stroke="none" 
	d="
M1259.815063,238.197510 
	C1264.062866,250.076157 1268.187988,261.583527 1272.472412,273.535736 
	C1253.719727,273.535736 1235.533325,273.535736 1216.501587,273.535736 
	C1225.839233,248.305450 1235.115479,223.241196 1244.824097,197.008347 
	C1250.008545,211.241180 1254.850464,224.533722 1259.815063,238.197510 
z"/>
</svg>